<svg width="227" height="132" viewBox="0 0 227 132" fill="none" xmlns="http://www.w3.org/2000/svg">
    <path d="M15.504 7.84C18.352 7.84 20.816 8.384 22.896 9.472C24.976 10.528 26.736 12.096 28.176 14.176L24.72 17.488C23.504 15.632 22.128 14.304 20.592 13.504C19.088 12.672 17.296 12.256 15.216 12.256C13.68 12.256 12.416 12.464 11.424 12.88C10.432 13.296 9.696 13.856 9.216 14.56C8.768 15.232 8.544 16 8.544 16.864C8.544 17.856 8.88 18.72 9.552 19.456C10.256 20.192 11.552 20.768 13.44 21.184L19.872 22.624C22.944 23.296 25.12 24.32 26.4 25.696C27.68 27.072 28.32 28.816 28.32 30.928C28.32 32.88 27.792 34.576 26.736 36.016C25.68 37.456 24.208 38.56 22.32 39.328C20.464 40.096 18.272 40.48 15.744 40.48C13.504 40.48 11.488 40.192 9.696 39.616C7.904 39.04 6.336 38.256 4.992 37.264C3.648 36.272 2.544 35.136 1.68 33.856L5.232 30.304C5.904 31.424 6.752 32.432 7.776 33.328C8.8 34.192 9.984 34.864 11.328 35.344C12.704 35.824 14.224 36.064 15.888 36.064C17.36 36.064 18.624 35.888 19.68 35.536C20.768 35.184 21.584 34.672 22.128 34C22.704 33.296 22.992 32.464 22.992 31.504C22.992 30.576 22.672 29.76 22.032 29.056C21.424 28.352 20.272 27.808 18.576 27.424L11.616 25.84C9.696 25.424 8.112 24.832 6.864 24.064C5.616 23.296 4.688 22.368 4.08 21.28C3.472 20.16 3.168 18.912 3.168 17.536C3.168 15.744 3.648 14.128 4.608 12.688C5.6 11.216 7.024 10.048 8.88 9.184C10.736 8.288 12.944 7.84 15.504 7.84ZM57.897 8.32V12.736H47.049V40H41.913V12.736H31.065V8.32H57.897Z" fill="#0057A0"/>
    <path d="M28.272 59.32V63.736H17.424V91H12.288V63.736H1.44V59.32H28.272ZM47.3348 59.32C50.7268 59.32 53.4148 60.168 55.3988 61.864C57.4148 63.56 58.4228 65.848 58.4228 68.728C58.4228 71.704 57.4148 74.008 55.3988 75.64C53.4148 77.24 50.7268 78.04 47.3348 78.04L46.8548 78.328H39.5108V91H34.4228V59.32H47.3348ZM46.9508 74.056C49.0308 74.056 50.5668 73.64 51.5588 72.808C52.5828 71.944 53.0948 70.632 53.0948 68.872C53.0948 67.144 52.5828 65.848 51.5588 64.984C50.5668 64.12 49.0308 63.688 46.9508 63.688H39.5108V74.056H46.9508ZM49.9748 75.112L60.2948 91H54.3907L45.5588 77.128L49.9748 75.112Z" fill="#0057A0"/>
    <g clip-path="url(#clip0_2951_12616)">
        <path d="M103.136 98.0776C113.043 95.2739 120.314 86.2475 120.314 75.5115V56.8945C111.13 56.8945 103.687 64.2798 103.687 73.3917V75.5286C103.687 79.3751 100.534 82.5036 96.6572 82.5036C93.0734 82.5036 90.127 79.8538 89.6963 76.4176C89.6963 82.6574 91.5571 94.3508 103.153 98.0776H103.136Z" fill="url(#paint0_linear_2951_12616)"/>
        <path d="M112.009 16.498C124.345 16.5322 134.391 26.9947 134.391 39.2863V82.5037C134.391 91.6156 141.834 99.0009 151.017 99.0009V48.9282C144.728 22.926 127.826 16.498 112.009 16.498Z" fill="url(#paint1_linear_2951_12616)"/>
        <path d="M110.82 0.0174161C110.544 0.0174161 110.286 0.0516071 110.01 0.0687026C89.1962 1.11153 73 18.737 73 39.5251V75.5282C73 88.4866 83.5964 99.0003 96.6567 99.0003C98.9139 99.0003 101.068 98.6755 103.135 98.0943C91.5567 94.3674 89.6786 82.6741 89.6786 76.4343C89.6441 76.1436 89.6097 75.8359 89.6097 75.5453V38.7045C89.6097 38.431 89.6441 38.1575 89.6441 37.8668C90.0921 26.1393 99.7237 16.7026 111.595 16.4975C111.716 16.4975 111.854 16.4975 111.974 16.4975C127.774 16.4975 144.694 22.9083 150.983 48.9105V38.6874C151 16.9761 132.857 -0.632213 110.82 0.0174161Z" fill="url(#paint2_linear_2951_12616)"/>
        <path d="M120.934 44.0449C120.934 45.4928 120.536 46.9129 119.783 48.1496C119.029 49.3862 117.95 50.3916 116.664 51.0557C115.377 51.7198 113.932 52.0168 112.488 51.9143C111.044 51.8119 109.656 51.3138 108.476 50.4747L119.475 39.4754C120.426 40.8092 120.936 42.4069 120.934 44.0449ZM117.616 37.6164L106.618 48.6144C105.537 47.0952 105.029 45.242 105.184 43.3838C105.339 41.5256 106.148 39.7825 107.467 38.464C108.785 37.1454 110.528 36.3367 112.386 36.1813C114.245 36.0259 116.097 36.5352 117.616 37.6164Z" fill="#FFC316"/>
    </g>
    <path d="M192.96 31.6C192.32 33.52 191.36 35.152 190.08 36.496C188.8 37.808 187.296 38.8 185.568 39.472C183.84 40.144 181.936 40.48 179.856 40.48C176.816 40.48 174.176 39.824 171.936 38.512C169.696 37.2 167.968 35.328 166.752 32.896C165.536 30.464 164.928 27.552 164.928 24.16C164.928 20.768 165.536 17.856 166.752 15.424C167.968 12.992 169.696 11.12 171.936 9.808C174.176 8.496 176.8 7.84 179.808 7.84C181.888 7.84 183.76 8.128 185.424 8.704C187.12 9.28 188.56 10.144 189.744 11.296C190.928 12.448 191.84 13.888 192.48 15.616L187.632 17.776C186.992 15.888 186.064 14.512 184.848 13.648C183.632 12.752 182.048 12.304 180.096 12.304C178.144 12.304 176.432 12.768 174.96 13.696C173.488 14.624 172.336 15.968 171.504 17.728C170.704 19.488 170.304 21.632 170.304 24.16C170.304 26.656 170.688 28.8 171.456 30.592C172.224 32.352 173.328 33.696 174.768 34.624C176.208 35.552 177.936 36.016 179.952 36.016C181.904 36.016 183.584 35.52 184.992 34.528C186.432 33.504 187.456 31.984 188.064 29.968L192.96 31.6ZM225.485 8.32L211.373 23.584L210.797 23.632L202.589 32.464L202.109 26.848L219.197 8.32H225.485ZM204.653 8.32V40H199.517V8.32H204.653ZM212.429 19.648L225.773 40H219.725L208.349 22.528L212.429 19.648Z" fill="#0057A0"/>
    <path d="M192.96 82.6C192.32 84.52 191.36 86.152 190.08 87.496C188.8 88.808 187.296 89.8 185.568 90.472C183.84 91.144 181.936 91.48 179.856 91.48C176.816 91.48 174.176 90.824 171.936 89.512C169.696 88.2 167.968 86.328 166.752 83.896C165.536 81.464 164.928 78.552 164.928 75.16C164.928 71.768 165.536 68.856 166.752 66.424C167.968 63.992 169.696 62.12 171.936 60.808C174.176 59.496 176.8 58.84 179.808 58.84C181.888 58.84 183.76 59.128 185.424 59.704C187.12 60.28 188.56 61.144 189.744 62.296C190.928 63.448 191.84 64.888 192.48 66.616L187.632 68.776C186.992 66.888 186.064 65.512 184.848 64.648C183.632 63.752 182.048 63.304 180.096 63.304C178.144 63.304 176.432 63.768 174.96 64.696C173.488 65.624 172.336 66.968 171.504 68.728C170.704 70.488 170.304 72.632 170.304 75.16C170.304 77.656 170.688 79.8 171.456 81.592C172.224 83.352 173.328 84.696 174.768 85.624C176.208 86.552 177.936 87.016 179.952 87.016C181.904 87.016 183.584 86.52 184.992 85.528C186.432 84.504 187.456 82.984 188.064 80.968L192.96 82.6ZM225.485 59.32L211.373 74.584L210.797 74.632L202.589 83.464L202.109 77.848L219.197 59.32H225.485ZM204.653 59.32V91H199.517V59.32H204.653ZM212.429 70.648L225.773 91H219.725L208.349 73.528L212.429 70.648Z" fill="#0057A0"/>
    <path opacity="0.7" d="M4.494 115.76C5.94067 115.76 7.07467 116.161 7.896 116.964C8.72667 117.757 9.142 118.896 9.142 120.38C9.142 121.864 8.72667 123.007 7.896 123.81C7.07467 124.603 5.94067 125 4.494 125H1.512V115.76H4.494ZM4.606 123.95C5.66067 123.95 6.482 123.637 7.07 123.012C7.66733 122.377 7.966 121.5 7.966 120.38C7.966 119.26 7.66733 118.387 7.07 117.762C6.482 117.127 5.66067 116.81 4.606 116.81H2.632V123.95H4.606ZM25.3258 115.62C26.2032 115.62 26.9592 115.816 27.5938 116.208C28.2378 116.591 28.7325 117.137 29.0778 117.846C29.4325 118.555 29.6098 119.4 29.6098 120.38C29.6098 121.36 29.4325 122.205 29.0778 122.914C28.7325 123.623 28.2378 124.174 27.5938 124.566C26.9592 124.949 26.2032 125.14 25.3258 125.14C24.4485 125.14 23.6878 124.949 23.0438 124.566C22.4092 124.174 21.9145 123.623 21.5598 122.914C21.2145 122.205 21.0418 121.36 21.0418 120.38C21.0418 119.4 21.2145 118.555 21.5598 117.846C21.9145 117.137 22.4092 116.591 23.0438 116.208C23.6878 115.816 24.4485 115.62 25.3258 115.62ZM25.3258 116.67C24.6912 116.67 24.1405 116.819 23.6738 117.118C23.2072 117.407 22.8478 117.832 22.5958 118.392C22.3438 118.943 22.2178 119.605 22.2178 120.38C22.2178 121.155 22.3438 121.822 22.5958 122.382C22.8478 122.933 23.2072 123.357 23.6738 123.656C24.1405 123.945 24.6912 124.09 25.3258 124.09C25.9698 124.09 26.5205 123.945 26.9778 123.656C27.4445 123.357 27.8038 122.933 28.0558 122.382C28.3078 121.822 28.4338 121.155 28.4338 120.38C28.4338 119.605 28.3078 118.943 28.0558 118.392C27.8038 117.832 27.4445 117.407 26.9778 117.118C26.5205 116.819 25.9698 116.67 25.3258 116.67ZM45.0425 115.62C45.8545 115.62 46.5545 115.788 47.1425 116.124C47.7305 116.451 48.2205 116.936 48.6125 117.58L47.6745 118.308C47.3292 117.711 46.9372 117.291 46.4985 117.048C46.0692 116.796 45.5465 116.67 44.9305 116.67C44.4358 116.67 44.0252 116.74 43.6985 116.88C43.3812 117.02 43.1478 117.207 42.9985 117.44C42.8492 117.664 42.7745 117.921 42.7745 118.21C42.7745 118.537 42.8772 118.826 43.0825 119.078C43.2878 119.321 43.6985 119.512 44.3145 119.652L46.3165 120.1C47.2032 120.296 47.8192 120.595 48.1645 120.996C48.5192 121.388 48.6965 121.878 48.6965 122.466C48.6965 122.989 48.5472 123.455 48.2485 123.866C47.9592 124.267 47.5485 124.58 47.0165 124.804C46.4845 125.028 45.8592 125.14 45.1405 125.14C44.4685 125.14 43.8758 125.051 43.3625 124.874C42.8585 124.687 42.4245 124.44 42.0605 124.132C41.6965 123.824 41.3978 123.479 41.1645 123.096L42.1445 122.298C42.3218 122.653 42.5505 122.965 42.8305 123.236C43.1105 123.507 43.4465 123.717 43.8385 123.866C44.2398 124.015 44.6972 124.09 45.2105 124.09C45.6865 124.09 46.0972 124.034 46.4425 123.922C46.7972 123.801 47.0678 123.628 47.2545 123.404C47.4412 123.171 47.5345 122.891 47.5345 122.564C47.5345 122.265 47.4365 121.999 47.2405 121.766C47.0445 121.523 46.6758 121.341 46.1345 121.22L43.9645 120.73C43.3952 120.599 42.9332 120.422 42.5785 120.198C42.2332 119.965 41.9812 119.694 41.8225 119.386C41.6732 119.069 41.5985 118.728 41.5985 118.364C41.5985 117.869 41.7338 117.417 42.0045 117.006C42.2845 116.586 42.6812 116.25 43.1945 115.998C43.7172 115.746 44.3332 115.62 45.0425 115.62ZM61.0433 125V115.76H67.5253V116.81H62.1633V119.792H66.3353V120.842H62.1633V123.95H67.7353V125H61.0433ZM96.8425 125.14C96.2265 125.14 95.6991 125.033 95.2605 124.818C94.8218 124.603 94.4858 124.309 94.2525 123.936C94.0191 123.563 93.9025 123.133 93.9025 122.648C93.9025 122.349 93.9398 122.069 94.0145 121.808C94.0985 121.537 94.2291 121.281 94.4065 121.038C94.5838 120.795 94.8218 120.567 95.1205 120.352C95.4285 120.137 95.8065 119.937 96.2545 119.75L96.8425 119.456C97.1971 119.26 97.4911 119.078 97.7245 118.91C97.9578 118.733 98.1305 118.541 98.2425 118.336C98.3638 118.131 98.4245 117.888 98.4245 117.608C98.4245 117.281 98.3218 117.029 98.1165 116.852C97.9205 116.665 97.6498 116.572 97.3045 116.572C96.9031 116.572 96.6045 116.684 96.4085 116.908C96.2218 117.123 96.1285 117.375 96.1285 117.664C96.1285 117.841 96.1518 118.014 96.1985 118.182C96.2451 118.341 96.3431 118.541 96.4925 118.784C96.6511 119.027 96.8845 119.349 97.1925 119.75C97.5005 120.151 97.9158 120.679 98.4385 121.332C98.9705 121.985 99.4091 122.513 99.7545 122.914C100.1 123.306 100.394 123.605 100.636 123.81C100.879 124.006 101.103 124.137 101.308 124.202C101.523 124.267 101.756 124.3 102.008 124.3L101.728 125.14C101.458 125.14 101.201 125.107 100.958 125.042C100.725 124.977 100.464 124.837 100.174 124.622C99.8945 124.407 99.5538 124.085 99.1525 123.656C98.7605 123.227 98.2705 122.653 97.6825 121.934C97.1785 121.309 96.7585 120.781 96.4225 120.352C96.0865 119.923 95.8205 119.559 95.6245 119.26C95.4285 118.961 95.2885 118.691 95.2045 118.448C95.1205 118.196 95.0785 117.939 95.0785 117.678C95.0785 117.342 95.1578 117.015 95.3165 116.698C95.4845 116.381 95.7365 116.124 96.0725 115.928C96.4085 115.723 96.8425 115.62 97.3745 115.62C97.7758 115.62 98.1258 115.695 98.4245 115.844C98.7231 115.993 98.9565 116.208 99.1245 116.488C99.3018 116.768 99.3905 117.099 99.3905 117.482C99.3905 117.809 99.3345 118.121 99.2225 118.42C99.1198 118.709 98.9191 118.999 98.6205 119.288C98.3311 119.568 97.8971 119.862 97.3185 120.17L96.8425 120.352C96.3571 120.576 95.9791 120.795 95.7085 121.01C95.4378 121.215 95.2465 121.439 95.1345 121.682C95.0225 121.925 94.9665 122.214 94.9665 122.55C94.9665 122.895 95.0551 123.194 95.2325 123.446C95.4098 123.698 95.6478 123.894 95.9465 124.034C96.2451 124.165 96.5811 124.23 96.9545 124.23C97.4678 124.23 97.9018 124.137 98.2565 123.95C98.6111 123.763 98.9378 123.497 99.2365 123.152L99.4185 122.984C99.6611 122.601 99.8478 122.167 99.9785 121.682C100.118 121.197 100.165 120.655 100.118 120.058L101.07 120.142C101.108 120.739 101.042 121.327 100.874 121.906C100.716 122.485 100.459 123.007 100.104 123.474L99.8945 123.768C99.5398 124.188 99.1105 124.524 98.6065 124.776C98.1025 125.019 97.5145 125.14 96.8425 125.14ZM134.35 115.76V116.81H131.13V125H130.01V116.81H126.79V115.76H134.35ZM147.423 115.76V125H146.303V115.76H147.423ZM169.378 115.76V125H168.314V119.19L168.44 116.754H168.426L165.388 125H164.436L161.398 116.754H161.384L161.51 119.19V125H160.446V115.76H162.168L164.198 121.374L164.898 123.684H164.926L165.64 121.388L167.656 115.76H169.378ZM183.515 115.76V125H182.395V115.76H183.515ZM203.789 115.76V125H202.403L198.539 118.812L197.559 117.076H197.545L197.601 118.476V125H196.537V115.76H197.923L201.773 121.92L202.767 123.698H202.781L202.725 122.284V115.76H203.789ZM220.543 125.14C219.665 125.14 218.905 124.949 218.261 124.566C217.626 124.174 217.131 123.623 216.777 122.914C216.431 122.205 216.259 121.36 216.259 120.38C216.259 119.4 216.441 118.555 216.805 117.846C217.178 117.137 217.696 116.591 218.359 116.208C219.021 115.816 219.782 115.62 220.641 115.62C221.555 115.62 222.297 115.793 222.867 116.138C223.445 116.483 223.912 117.015 224.267 117.734L223.245 118.294C223.039 117.762 222.713 117.361 222.265 117.09C221.826 116.81 221.285 116.67 220.641 116.67C220.015 116.67 219.46 116.819 218.975 117.118C218.499 117.407 218.121 117.832 217.841 118.392C217.57 118.943 217.435 119.605 217.435 120.38C217.435 121.155 217.551 121.822 217.785 122.382C218.027 122.933 218.382 123.357 218.849 123.656C219.325 123.945 219.903 124.09 220.585 124.09C220.967 124.09 221.322 124.043 221.649 123.95C221.985 123.847 222.274 123.698 222.517 123.502C222.769 123.306 222.965 123.059 223.105 122.76C223.245 122.461 223.315 122.111 223.315 121.71V121.388H220.375V120.338H224.337V125H223.455L223.399 123.278L223.637 123.32C223.394 123.899 223.011 124.347 222.489 124.664C221.966 124.981 221.317 125.14 220.543 125.14Z" fill="#0057A0"/>
    <defs>
        <linearGradient id="paint0_linear_2951_12616" x1="104.996" y1="98.0776" x2="104.996" y2="56.8945" gradientUnits="userSpaceOnUse">
            <stop stop-color="#0092B3"/>
            <stop offset="1" stop-color="#7CE7FF"/>
        </linearGradient>
        <linearGradient id="paint1_linear_2951_12616" x1="131.496" y1="99.0009" x2="131.496" y2="16.498" gradientUnits="userSpaceOnUse">
            <stop stop-color="#38DBFF"/>
            <stop offset="1" stop-color="#00ADD3"/>
        </linearGradient>
        <linearGradient id="paint2_linear_2951_12616" x1="73" y1="49.4918" x2="151" y2="49.4918" gradientUnits="userSpaceOnUse">
            <stop stop-color="#00ADD3"/>
            <stop offset="1" stop-color="#82E8FF"/>
        </linearGradient>
        <clipPath id="clip0_2951_12616">
            <rect width="78" height="99" fill="white" transform="translate(73)"/>
        </clipPath>
    </defs>
</svg>
